PathFileType	4	(X/Y/Z)	SUBJ24_1_walk_RCNL2025.trc
DataRate	CameraRate	NumFrames	NumMarkers	Units	OrigDataRate	OrigDataStartFrame	OrigNumFrames
100	100	10	25	mm	100	126	335
Frame#	Time	R_Shoulder			L_Shoulder			C7			J_Notch			R_Elbow			L_Elbow			R_Wrist			L_Wrist			R_Asis			L_Asis			Sacral			Thoracic			Sternum			R_Thigh_Lateral			R_Knee_Lateral			R_Shank_Lateral			R_Ankle_Lateral			R_Heel			R_Toe			L_Thigh_Lateral			L_Knee_Lateral			L_Shank_Lateral			L_Ankle_Lateral			L_Heel			L_Toe		
		X1	Y1	Z1	X2	Y2	Z2	X3	Y3	Z3	X4	Y4	Z4	X5	Y5	Z5	X6	Y6	Z6	X7	Y7	Z7	X8	Y8	Z8	X9	Y9	Z9	X10	Y10	Z10	X11	Y11	Z11	X12	Y12	Z12	X13	Y13	Z13	X14	Y14	Z14	X15	Y15	Z15	X16	Y16	Z16	X17	Y17	Z17	X18	Y18	Z18	X19	Y19	Z19	X20	Y20	Z20	X21	Y21	Z21	X22	Y22	Z22	X23	Y23	Z23	X24	Y24	Z24	X25	Y25	Z25
126	1.25000000	-1278.574097	1315.736450	371.819763	-1305.041626	1326.146851	27.914646	-1373.027344	1382.359253	203.314682	-1240.528931	1290.953247	194.780869	-1334.449097	1037.595459	472.308533	-1278.142456	1044.870850	-79.151527	-1298.481689	802.848175	457.481628	-1110.157959	879.208466	-54.496228	-1243.495605	879.928162	361.530243	-1282.756714	874.708313	37.730103	-1435.805786	920.279236	225.805038	-1438.424072	1113.385742	204.249268	-1168.912354	1076.535278	189.149414	-1232.267456	572.197144	411.653778	-1140.395264	455.914459	341.937592	-1158.879395	313.853424	392.812805	-1174.907349	80.063026	325.586426	-1213.108887	52.784252	261.604248	-1051.174072	54.015301	332.560425	-1350.131836	565.536377	37.040737	-1350.874268	436.372253	99.398972	-1390.119385	281.017944	55.114346	-1434.376099	59.707928	132.644882	-1483.678345	35.456070	188.461624	-1316.949097	39.597965	161.166397
127	1.26000000	-1265.964844	1313.582153	372.402924	-1292.436768	1324.139893	28.580818	-1360.444702	1380.500244	203.931168	-1228.201538	1288.654663	195.204544	-1325.747681	1036.041504	472.512360	-1261.610107	1044.336792	-79.608780	-1292.940796	800.779144	458.286102	-1089.535828	883.095551	-54.537471	-1230.766479	877.565186	361.874054	-1272.290649	873.128052	38.115177	-1423.677734	918.198486	227.569763	-1426.615967	1111.832275	205.505600	-1157.213501	1073.923706	189.302216	-1221.325073	569.197266	410.994202	-1127.862427	454.155334	341.314636	-1138.546753	311.947357	393.274628	-1137.858521	76.942398	327.342651	-1174.149170	46.903320	263.440582	-1012.395447	59.030037	334.453613	-1342.726929	564.785706	37.354710	-1345.135742	435.651855	99.712341	-1386.801758	280.805298	55.290100	-1434.032471	59.935936	132.828156	-1483.485229	35.886669	188.652878	-1316.788208	39.453384	161.175873
128	1.27000000	-1253.220093	1311.280273	373.052948	-1279.787476	1321.959717	29.325165	-1347.814087	1378.468628	204.644653	-1215.778564	1286.206421	195.693695	-1316.810059	1034.319336	472.649200	-1245.219604	1043.599365	-79.819130	-1286.996460	798.609344	459.057053	-1069.411194	886.609222	-54.497313	-1218.089600	875.020691	362.339996	-1261.563843	871.405029	38.588085	-1411.455322	915.935974	229.255463	-1414.716553	1110.079468	206.849869	-1145.449341	1071.137939	189.497284	-1211.234009	565.583740	410.290375	-1115.525757	452.150848	340.716644	-1118.806030	310.306763	393.672150	-1102.109741	75.063789	328.827393	-1136.468872	42.506786	265.029022	-975.388062	64.841537	335.972656	-1334.925293	563.852783	37.692135	-1338.967041	434.777771	100.066437	-1383.151245	280.505249	55.511826	-1433.659546	60.206482	133.001984	-1483.281006	36.407555	188.836731	-1316.632202	39.316132	161.202484
129	1.28000000	-1240.363403	1308.852417	373.780670	-1267.088013	1319.653198	30.157269	-1335.132202	1376.292114	205.457520	-1203.265869	1283.644165	196.259567	-1307.615234	1032.445923	472.749786	-1229.027588	1042.663818	-79.778885	-1280.607300	796.348236	459.808960	-1049.808838	889.739746	-54.379522	-1205.435059	872.346680	362.930695	-1250.560669	869.528320	39.160950	-1399.146729	913.544434	230.858139	-1402.694946	1108.146240	208.246796	-1133.605103	1068.227661	189.749817	-1201.756348	561.428650	409.612061	-1103.196411	449.987061	340.138184	-1099.510376	308.904602	393.985107	-1068.072266	74.248245	330.009735	-1100.589355	39.447151	266.355865	-940.495850	71.076149	337.023010	-1326.754028	562.738770	38.070992	-1332.381958	433.748779	100.469597	-1379.176880	280.122772	55.789391	-1433.249146	60.524113	133.174515	-1483.069336	37.040440	189.016083	-1316.482788	39.193939	161.243469
130	1.29000000	-1227.419434	1306.319824	374.596252	-1254.330566	1317.266479	31.083652	-1322.391846	1373.999023	206.368790	-1190.666260	1281.003906	196.911743	-1298.139160	1030.440796	472.853394	-1213.092407	1041.534546	-79.489159	-1273.736389	794.004242	460.561111	-1030.754730	892.480865	-54.188437	-1192.780762	869.591675	363.642670	-1239.292603	867.493042	39.833916	-1386.759644	911.076233	232.381287	-1390.528442	1106.061523	209.664124	-1121.664551	1065.237549	190.076157	-1192.586548	556.850098	409.002289	-1090.697388	447.754364	339.576508	-1080.588379	307.709930	394.194153	-1036.143433	74.241219	330.866150	-1067.016357	37.492500	267.409119	-908.027527	77.300858	337.515961	-1318.250977	561.455261	38.504677	-1325.407593	432.574493	100.923767	-1374.903931	279.670502	56.127487	-1432.793945	60.899086	133.355820	-1482.853638	37.810764	189.193954	-1316.340332	39.092216	161.294525
131	1.30000000	-1214.409424	1303.705322	375.508850	-1241.505615	1314.841797	32.106533	-1309.582642	1371.618896	207.376785	-1177.977539	1278.320435	197.659561	-1288.357422	1028.323730	473.001526	-1197.469482	1040.214722	-78.955223	-1266.349609	791.587494	461.336868	-1012.274933	894.825653	-53.927450	-1180.107544	866.802917	364.468292	-1227.783447	865.298096	40.599594	-1374.298096	908.579163	233.835602	-1378.207031	1103.862305	211.073654	-1109.608398	1062.209717	190.494781	-1183.360107	552.028503	408.484436	-1077.887085	445.540497	339.034271	-1062.067627	306.676086	394.283386	-1006.688782	74.731087	331.375092	-1036.211060	36.347996	268.172089	-878.251831	83.054016	337.382538	-1309.470825	560.029663	39.000092	-1318.080811	431.273376	101.423653	-1370.368652	279.169159	56.524734	-1432.287842	61.351311	133.555984	-1482.634399	38.749481	189.372314	-1316.202393	39.014343	161.348846
132	1.31000000	-1201.350220	1301.032593	376.526917	-1228.604126	1312.414795	33.224434	-1296.692261	1369.183594	208.481888	-1165.193359	1275.627930	198.513519	-1278.247070	1026.113281	473.232635	-1182.208252	1038.708496	-78.187546	-1258.412781	789.110931	462.158218	-994.396484	896.764771	-53.598517	-1167.394165	864.027161	365.397003	-1216.060303	862.949768	41.446407	-1361.760254	906.095459	235.237137	-1365.733032	1101.590698	212.451096	-1097.414795	1059.184692	191.025894	-1173.665039	547.210571	408.083038	-1064.678101	443.419067	338.519531	-1044.042969	305.729218	394.240295	-980.023071	75.379349	331.515808	-1008.562744	35.688457	268.619690	-851.393372	87.881271	336.588165	-1300.475586	558.501648	39.558903	-1310.440186	429.870056	101.957695	-1365.606812	278.649506	56.972649	-1431.729248	61.913887	133.780579	-1482.408691	39.895424	189.551208	-1316.062744	38.961826	161.396118
133	1.32000000	-1188.253174	1298.324585	377.658630	-1215.614746	1310.015137	34.434883	-1283.708496	1366.726318	209.686462	-1152.303345	1272.960815	199.484283	-1267.788330	1023.824768	473.578888	-1167.349243	1037.024292	-77.202087	-1249.891541	786.590454	463.041016	-977.146027	898.288635	-53.202468	-1154.612671	861.310852	366.416931	-1204.151489	860.467407	42.360054	-1349.137695	903.663635	236.604706	-1353.114014	1099.287842	213.778534	-1085.062134	1056.200439	191.687592	-1163.077026	542.686890	407.845123	-1051.043213	441.440887	338.042999	-1026.621826	304.772034	394.055054	-956.385254	75.860771	331.275330	-984.362183	35.200874	268.724121	-827.622314	91.375168	335.141785	-1291.313232	556.911987	40.180851	-1302.515991	428.394470	102.511261	-1360.641113	278.153412	57.455780	-1431.121826	62.633549	134.026093	-1482.167358	41.295818	189.727692	-1315.911133	38.934296	161.422531
134	1.33000000	-1175.125244	1295.604858	378.910370	-1202.522461	1307.669067	35.736790	-1270.622070	1364.282959	210.993210	-1139.295776	1270.354492	200.580750	-1256.965454	1021.472473	474.063568	-1152.921631	1035.178345	-76.019012	-1240.752197	784.043945	463.993469	-960.546600	899.389954	-52.739587	-1141.727661	858.701355	367.517792	-1192.083496	857.885010	43.326557	-1336.414795	901.320190	237.958496	-1340.353394	1096.991699	215.048370	-1072.530762	1053.290771	192.491562	-1151.233276	538.744019	407.845367	-1037.008911	439.633331	337.612793	-1009.888733	303.704987	393.720520	-935.913086	75.908653	330.662781	-963.775757	34.631351	268.474091	-807.034302	93.214867	333.098999	-1282.002075	555.296631	40.865246	-1294.318359	426.880463	103.069862	-1355.475098	277.729187	57.954521	-1430.468140	63.568516	134.276779	-1481.894165	43.004837	189.893723	-1315.733276	38.929867	161.411606
135	1.34000000	-1161.968384	1292.902222	380.285156	-1189.309448	1305.402344	37.130840	-1257.428345	1361.893188	212.404648	-1126.160400	1267.844849	201.810623	-1245.764282	1019.072510	474.697296	-1138.942261	1033.194946	-74.660515	-1230.962341	781.489990	465.017471	-944.616272	900.064941	-52.210236	-1128.700684	856.248413	368.693451	-1179.869995	855.247070	44.338783	-1323.571411	899.100769	239.318604	-1327.445312	1094.737793	216.263565	-1059.804810	1050.487061	193.442581	-1137.933960	535.609619	408.163574	-1022.643127	438.006622	337.229431	-993.908203	302.455688	393.234589	-918.619934	75.355377	329.721466	-946.826904	33.826183	267.895660	-789.625000	93.201965	330.559875	-1272.526245	553.687256	41.608643	-1285.828613	425.361176	103.620201	-1350.090698	277.422974	58.448212	-1429.760254	64.785034	134.503540	-1481.563232	45.084160	190.032639	-1315.511841	38.945377	161.345627
